<svg id="图层_1" data-name="图层 1" xmlns="http://www.w3.org/2000/svg" viewBox="0 0 51.02 51.02"><defs><style>.cls-1{fill:#231815;}</style></defs><title>货签版式</title><polygon class="cls-1" points="19.62 2.62 19.62 1.31 18.32 1.31 17.01 1.31 15.7 1.31 15.7 2.62 14.39 2.62 14.39 1.31 13.08 1.31 11.78 1.31 11.78 2.62 13.08 2.62 13.08 3.92 14.39 3.92 15.7 3.92 15.7 5.23 17.01 5.23 17.01 3.92 18.32 3.92 18.32 2.62 19.62 2.62"/><rect class="cls-1" x="26.17" y="1.31" width="1.31" height="1.31"/><polygon class="cls-1" points="30.09 1.31 28.78 1.31 28.78 2.62 28.78 3.92 30.09 3.92 30.09 2.62 30.09 1.31"/><path class="cls-1" d="M40.56,1.3v9.16h9.16V1.3Zm7.85,7.85H41.87V2.61h6.54Z"/><rect class="cls-1" x="19.62" y="2.62" width="1.31" height="1.31"/><polygon class="cls-1" points="24.86 5.23 26.17 5.23 26.17 3.92 24.86 3.92 24.86 2.62 23.55 2.62 23.55 1.31 22.24 1.31 22.24 2.62 22.24 3.92 22.24 5.23 23.55 5.23 24.86 5.23"/><polygon class="cls-1" points="32.71 5.23 32.71 3.92 34.02 3.92 35.32 3.92 36.63 3.92 36.63 5.23 35.32 5.23 35.32 6.54 36.63 6.54 36.63 7.85 36.63 9.16 37.94 9.16 37.94 10.47 37.94 11.78 39.25 11.78 39.25 10.47 39.25 9.16 39.25 7.85 37.94 7.85 37.94 6.54 39.25 6.54 39.25 5.23 39.25 3.92 39.25 2.62 37.94 2.62 37.94 1.31 36.63 1.31 35.32 1.31 34.02 1.31 34.02 2.62 32.71 2.62 31.4 2.62 31.4 3.92 30.09 3.92 30.09 5.23 31.4 5.23 32.71 5.23"/><polygon class="cls-1" points="44.48 3.92 43.17 3.92 43.17 5.23 43.17 6.54 43.17 7.85 44.48 7.85 45.79 7.85 47.1 7.85 47.1 6.54 47.1 5.23 47.1 3.92 45.79 3.92 44.48 3.92"/><rect class="cls-1" x="11.77" y="5.23" width="1.31" height="1.31"/><polygon class="cls-1" points="30.09 6.54 30.09 5.23 28.78 5.23 27.47 5.23 27.47 6.54 28.78 6.54 30.09 6.54"/><polygon class="cls-1" points="6.54 7.85 7.85 7.85 7.85 6.54 7.85 5.23 7.85 3.92 6.54 3.92 5.23 3.92 3.92 3.92 3.92 5.23 3.92 6.54 3.92 7.85 5.23 7.85 6.54 7.85"/><polygon class="cls-1" points="14.39 6.54 13.08 6.54 13.08 7.85 13.08 9.16 14.39 9.16 14.39 7.85 14.39 6.54"/><rect class="cls-1" x="23.55" y="6.54" width="1.31" height="1.31"/><polygon class="cls-1" points="22.24 9.16 22.24 7.85 20.93 7.85 20.93 6.54 19.62 6.54 19.62 5.23 19.62 3.92 18.32 3.92 18.32 5.23 18.32 6.54 17.01 6.54 15.7 6.54 15.7 7.85 17.01 7.85 17.01 9.16 17.01 10.47 15.7 10.47 15.7 11.78 15.7 13.08 17.01 13.08 18.32 13.08 18.32 11.78 18.32 10.47 18.32 9.16 19.62 9.16 19.62 10.47 20.93 10.47 20.93 9.16 22.24 9.16"/><rect class="cls-1" x="28.78" y="7.85" width="1.31" height="1.31"/><polygon class="cls-1" points="35.32 7.85 35.32 6.54 34.02 6.54 32.71 6.54 31.4 6.54 30.09 6.54 30.09 7.85 31.4 7.85 31.4 9.16 32.71 9.16 32.71 7.85 34.02 7.85 34.02 9.16 35.32 9.16 35.32 7.85"/><path class="cls-1" d="M1.31,1.3v9.16h9.16V1.3ZM9.16,9.15H2.62V2.61H9.16Z"/><rect class="cls-1" x="11.77" y="9.16" width="1.31" height="1.31"/><rect class="cls-1" x="14.39" y="9.16" width="1.31" height="1.31"/><rect class="cls-1" x="22.24" y="9.16" width="1.31" height="1.31"/><rect class="cls-1" x="30.09" y="9.16" width="1.31" height="1.31"/><rect class="cls-1" x="35.32" y="9.16" width="1.31" height="1.31"/><rect class="cls-1" x="20.93" y="10.47" width="1.31" height="1.31"/><rect class="cls-1" x="3.92" y="11.77" width="1.31" height="1.31"/><polygon class="cls-1" points="9.16 13.08 10.47 13.08 10.47 11.78 9.16 11.78 7.85 11.78 6.54 11.78 6.54 13.08 7.85 13.08 9.16 13.08"/><rect class="cls-1" x="11.77" y="11.77" width="1.31" height="1.31"/><rect class="cls-1" x="19.62" y="11.77" width="1.31" height="1.31"/><rect class="cls-1" x="36.63" y="11.77" width="1.31" height="1.31"/><rect class="cls-1" x="44.48" y="11.77" width="1.31" height="1.31"/><polygon class="cls-1" points="48.41 13.08 47.1 13.08 47.1 14.39 48.41 14.39 48.41 15.7 47.1 15.7 47.1 17.01 48.41 17.01 48.41 18.32 47.1 18.32 45.79 18.32 44.48 18.32 44.48 19.62 45.79 19.62 45.79 20.93 47.1 20.93 47.1 22.24 48.41 22.24 48.41 20.93 49.72 20.93 49.72 19.62 49.72 18.32 49.72 17.01 49.72 15.7 49.72 14.39 49.72 13.08 49.72 11.78 48.41 11.78 48.41 13.08"/><rect class="cls-1" x="5.23" y="13.08" width="1.31" height="1.31"/><rect class="cls-1" x="14.39" y="13.08" width="1.31" height="1.31"/><polygon class="cls-1" points="37.94 13.08 37.94 14.39 39.25 14.39 40.56 14.39 40.56 15.7 41.87 15.7 41.87 14.39 41.87 13.08 40.56 13.08 40.56 11.78 39.25 11.78 39.25 13.08 37.94 13.08"/><polygon class="cls-1" points="19.62 15.7 19.62 14.39 18.32 14.39 17.01 14.39 17.01 15.7 18.32 15.7 19.62 15.7"/><rect class="cls-1" x="23.55" y="14.39" width="1.31" height="1.31"/><polygon class="cls-1" points="45.79 14.39 44.48 14.39 44.48 15.7 45.79 15.7 47.1 15.7 47.1 14.39 45.79 14.39"/><rect class="cls-1" x="5.23" y="15.7" width="1.31" height="1.31"/><rect class="cls-1" x="7.85" y="15.7" width="1.31" height="1.31"/><polygon class="cls-1" points="22.24 15.7 20.93 15.7 20.93 17.01 22.24 17.01 23.55 17.01 23.55 15.7 22.24 15.7"/><rect class="cls-1" x="24.86" y="15.7" width="1.31" height="1.31"/><polygon class="cls-1" points="30.09 10.46 30.09 14.39 28.79 14.39 28.79 17.46 27.48 17.46 27.48 15.7 26.17 15.7 26.17 13.08 24.86 13.08 24.86 11.77 23.55 11.77 23.55 10.46 24.86 10.46 24.86 7.85 26.17 7.85 26.17 6.54 27.48 6.54 27.48 9.15 26.17 9.15 26.17 10.46 27.48 10.46 27.48 9.15 28.79 9.15 28.79 10.46 30.09 10.46"/><rect class="cls-1" x="39.25" y="15.7" width="1.31" height="1.31"/><rect class="cls-1" x="6.54" y="17.01" width="1.31" height="1.31"/><polygon class="cls-1" points="11.78 17.01 11.78 15.7 13.08 15.7 13.08 14.39 11.78 14.39 10.47 14.39 9.16 14.39 9.16 15.7 10.47 15.7 10.47 17.01 9.16 17.01 9.16 18.32 10.47 18.32 10.47 19.62 9.16 19.62 9.16 18.32 7.85 18.32 7.85 19.62 6.54 19.62 6.54 20.93 7.85 20.93 9.16 20.93 10.47 20.93 11.78 20.93 11.78 19.62 11.78 18.32 13.08 18.32 13.08 17.01 11.78 17.01"/><path class="cls-1" d="M19.63,17v.6a2.76,2.76,0,0,0-1.2.71H17V17Z"/><polygon class="cls-1" points="40.56 17.01 40.56 18.32 40.56 19.62 40.56 20.93 41.87 20.93 41.87 19.62 41.87 18.32 43.17 18.32 43.17 17.01 43.17 15.7 41.87 15.7 41.87 17.01 40.56 17.01"/><rect class="cls-1" x="23.55" y="17" width="1.31" height="0.46"/><rect class="cls-1" x="37.94" y="19.62" width="1.31" height="1.31"/><rect class="cls-1" x="43.17" y="19.62" width="1.31" height="1.31"/><polygon class="cls-1" points="2.62 20.93 2.62 19.62 3.92 19.62 3.92 20.93 5.23 20.93 5.23 19.62 5.23 18.32 3.92 18.32 3.92 17.01 3.92 15.7 2.62 15.7 2.62 14.39 1.31 14.39 1.31 15.7 1.31 17.01 1.31 18.32 1.31 19.62 1.31 20.93 1.31 22.24 2.62 22.24 2.62 20.93"/><path class="cls-1" d="M17.61,19.62a2.93,2.93,0,0,0-.14.9v3H17V20.93H14.39V19.62h-1.3V18.31h1.3V17h-1.3V15.7H17V17H15.7v1.31H17v1.31Z"/><path class="cls-1" d="M11.78,24.85v-1.3h2.61V22.24H9.16v1.31h1.31v1.3H9.16v1.31h2.62v1.31H15.7v1.31H17V27.47h.46V24.85Zm27.47-6.54V17H37.94V15.7H35.33V10.46H34V9.15H32.71v1.31H31.4v3.93H30.09v3.07h.41a3.06,3.06,0,0,1,3.06,3.06v.41H34v1.31h-.46v2.61H34v-1.3h1.31V22.24h2.61V20.93H35.33V19.62H34V18.31h1.31V17h1.3v1.31ZM34,15.7H32.71V14.39H34Z"/><polygon class="cls-1" points="41.87 22.24 40.56 22.24 39.25 22.24 37.94 22.24 37.94 23.55 37.94 24.86 37.94 26.17 37.94 27.47 36.63 27.47 36.63 28.78 37.94 28.78 39.25 28.78 39.25 30.09 40.56 30.09 40.56 28.78 41.87 28.78 43.17 28.78 43.17 27.47 41.87 27.47 41.87 26.17 40.56 26.17 39.25 26.17 39.25 24.86 39.25 23.55 40.56 23.55 40.56 24.86 41.87 24.86 41.87 23.55 43.17 23.55 43.17 22.24 43.17 20.93 41.87 20.93 41.87 22.24"/><polygon class="cls-1" points="47.1 26.17 48.41 26.17 48.41 27.47 49.72 27.47 49.72 26.17 49.72 24.86 49.72 23.55 48.41 23.55 47.1 23.55 45.79 23.55 45.79 22.24 44.48 22.24 44.48 23.55 44.48 24.86 44.48 26.17 45.79 26.17 47.1 26.17"/><polygon class="cls-1" points="36.63 24.85 36.63 26.16 35.33 26.16 35.33 27.47 33.56 27.47 33.56 26.16 34.02 26.16 34.02 24.85 36.63 24.85"/><rect class="cls-1" x="43.17" y="26.17" width="1.31" height="1.31"/><path class="cls-1" d="M11.78,30.09V27.47H7.85V24.85H9.16v-1.3H6.54v2.61H5.24V23.55h1.3V22.24H3.93v1.31H2.62v1.3H3.93v1.31H1.31v1.31H2.62v2.62H1.31V31.4H2.62v1.3H7.85V31.4h2.62v1.3h1.31V34h1.31V30.09Zm-3.93,0H5.24V31.4H3.93V28.78H7.85Zm2.62,0H9.16V28.78h1.31Z"/><rect class="cls-1" x="13.08" y="28.78" width="1.31" height="1.31"/><polygon class="cls-1" points="48.41 28.78 47.1 28.78 45.79 28.78 45.79 30.09 47.1 30.09 47.1 31.4 48.41 31.4 49.72 31.4 49.72 30.09 48.41 30.09 48.41 28.78"/><rect class="cls-1" x="14.39" y="30.09" width="1.31" height="1.31"/><path class="cls-1" d="M34,28.78V31.4h-.6a3,3,0,0,0,.14-.9V28.78Z"/><polygon class="cls-1" points="43.17 30.09 43.17 31.4 44.48 31.4 45.79 31.4 45.79 30.09 44.48 30.09 43.17 30.09"/><rect class="cls-1" x="37.94" y="31.4" width="1.31" height="1.31"/><rect class="cls-1" x="1.31" y="32.71" width="1.31" height="1.31"/><rect class="cls-1" x="9.16" y="32.71" width="1.31" height="1.31"/><path class="cls-1" d="M19.63,33.41V34H18.32V32.6A3,3,0,0,0,19.63,33.41Z"/><polygon class="cls-1" points="22.24 34.01 23.55 34.01 23.55 35.32 22.24 35.32 22.24 37.94 19.63 37.94 19.63 36.63 20.94 36.63 20.94 35.32 19.63 35.32 19.63 34.01 20.94 34.01 20.94 33.55 22.24 33.55 22.24 34.01"/><rect class="cls-1" x="23.55" y="33.55" width="1.31" height="0.46"/><path class="cls-1" d="M37.94,32.7V34H36.63v1.31H34v1.31h2.61v1.31h-1.3v1.31H34V37.94H32.71V36.63H30.09V35.32h-1.3V33.55H30.5a3,3,0,0,0,2.21-.95v.1H34V31.4h2.61v1.3Z"/><polygon class="cls-1" points="40.56 34.02 40.56 35.32 41.87 35.32 41.87 34.02 41.87 32.71 40.56 32.71 39.25 32.71 39.25 34.02 40.56 34.02"/><polygon class="cls-1" points="48.41 34.02 48.41 35.32 47.1 35.32 47.1 34.02 45.79 34.02 45.79 32.71 44.48 32.71 44.48 34.02 44.48 35.32 45.79 35.32 45.79 36.63 47.1 36.63 48.41 36.63 48.41 37.94 49.72 37.94 49.72 36.63 49.72 35.32 49.72 34.02 49.72 32.71 48.41 32.71 48.41 34.02"/><polygon class="cls-1" points="31.4 39.25 31.4 40.55 27.48 40.55 27.48 39.25 26.17 39.25 26.17 37.94 23.55 37.94 23.55 36.63 26.17 36.63 26.17 35.32 24.86 35.32 24.86 34.01 26.17 34.01 26.17 33.55 27.48 33.55 27.48 37.94 28.79 37.94 28.79 39.25 31.4 39.25"/><rect class="cls-1" x="1.31" y="35.32" width="1.31" height="1.31"/><rect class="cls-1" x="9.16" y="35.32" width="1.31" height="1.31"/><rect class="cls-1" x="2.62" y="36.63" width="1.31" height="1.31"/><rect class="cls-1" x="1.31" y="37.94" width="1.31" height="1.31"/><rect class="cls-1" x="22.24" y="37.94" width="1.31" height="1.31"/><rect class="cls-1" x="31.4" y="37.94" width="1.31" height="1.31"/><rect class="cls-1" x="47.1" y="37.94" width="1.31" height="1.31"/><rect class="cls-1" x="11.77" y="39.25" width="1.31" height="1.31"/><polygon class="cls-1" points="32.71 40.56 32.71 41.87 34.02 41.87 34.02 40.56 34.02 39.25 32.71 39.25 32.71 40.56"/><path class="cls-1" d="M1.31,40.55v9.16h9.16V40.55ZM9.16,48.4H2.62V41.86H9.16Z"/><rect class="cls-1" x="13.08" y="40.56" width="1.31" height="1.31"/><rect class="cls-1" x="40.56" y="40.56" width="1.31" height="1.31"/><polygon class="cls-1" points="47.1 40.56 45.79 40.56 45.79 41.87 47.1 41.87 48.41 41.87 49.72 41.87 49.72 40.56 49.72 39.25 48.41 39.25 48.41 40.56 47.1 40.56"/><polygon class="cls-1" points="11.78 43.17 11.78 44.48 13.08 44.48 13.08 43.17 13.08 41.87 11.78 41.87 11.78 43.17"/><rect class="cls-1" x="28.78" y="41.87" width="1.31" height="1.31"/><polygon class="cls-1" points="5.23 43.17 3.92 43.17 3.92 44.48 3.92 45.79 3.92 47.1 5.23 47.1 6.54 47.1 7.85 47.1 7.85 45.79 7.85 44.48 7.85 43.17 6.54 43.17 5.23 43.17"/><path class="cls-1" d="M27.48,43.17V40.55H24.86v-1.3H23.55v1.3H22.24v-1.3H19.63V37.94H18.32V36.63h1.31V35.32H18.32V34H14.39v2.62H10.47v1.31H6.54V36.63H7.85V34H5.24v1.31H3.93v1.31H5.24v2.62h6.54V37.94h1.31v1.31H15.7v1.3h2.62v1.31H14.39v2.62H15.7V43.17h2.62v1.31h5.23V43.17H19.63V40.55h1.31v1.31h3.92v2.62h3.93V43.17ZM17,37.94H15.7V36.63H17Z"/><path class="cls-1" d="M45.79,39.25V37.94H43.18V36.63H37.94v3.92H36.63v1.31H34v1.31H32.71V41.86H31.4v3.93h1.31V44.48H34v1.31h1.31V44.48h1.3V43.17h1.31v1.31h1.31v1.31h1.31V44.48h2.62V47.1h1.3V44.48h1.31V43.17H44.48V39.25Zm-2.61,3.92H39.25V39.25h3.93Z"/><polygon class="cls-1" points="15.7 44.48 15.7 45.79 17.01 45.79 18.32 45.79 18.32 44.48 17.01 44.48 15.7 44.48"/><rect class="cls-1" x="23.55" y="44.48" width="1.31" height="1.31"/><polygon class="cls-1" points="36.63 45.79 36.63 47.1 35.32 47.1 34.02 47.1 32.71 47.1 31.4 47.1 31.4 45.79 30.09 45.79 30.09 44.48 28.78 44.48 28.78 45.79 28.78 47.1 30.09 47.1 30.09 48.41 28.78 48.41 27.47 48.41 27.47 47.1 26.17 47.1 24.86 47.1 24.86 48.41 26.17 48.41 26.17 49.72 27.47 49.72 28.78 49.72 30.09 49.72 31.4 49.72 31.4 48.41 32.71 48.41 34.02 48.41 35.32 48.41 36.63 48.41 37.94 48.41 37.94 49.72 39.25 49.72 40.56 49.72 41.87 49.72 41.87 48.41 40.56 48.41 40.56 47.1 39.25 47.1 37.94 47.1 37.94 45.79 37.94 44.48 36.63 44.48 36.63 45.79"/><polygon class="cls-1" points="47.1 45.79 48.41 45.79 48.41 47.1 49.72 47.1 49.72 45.79 49.72 44.48 48.41 44.48 47.1 44.48 45.79 44.48 45.79 45.79 47.1 45.79"/><rect class="cls-1" x="11.77" y="45.79" width="1.31" height="1.31"/><polygon class="cls-1" points="14.39 47.1 13.08 47.1 13.08 48.41 13.08 49.72 14.39 49.72 15.7 49.72 17.01 49.72 17.01 48.41 17.01 47.1 15.7 47.1 14.39 47.1"/><rect class="cls-1" x="22.24" y="47.1" width="1.31" height="1.31"/><rect class="cls-1" x="44.48" y="47.1" width="1.31" height="1.31"/><polygon class="cls-1" points="47.1 48.41 47.1 49.72 48.41 49.72 49.72 49.72 49.72 48.41 48.41 48.41 48.41 47.1 47.1 47.1 47.1 48.41"/><polygon class="cls-1" points="19.62 48.41 19.62 49.72 20.93 49.72 22.24 49.72 22.24 48.41 20.93 48.41 19.62 48.41"/><rect class="cls-1" x="23.55" y="48.41" width="1.31" height="1.31"/><rect class="cls-1" x="43.17" y="48.41" width="1.31" height="1.31"/><path class="cls-1" d="M29.51,28.46V27H29.1v1.34h-.56V27H28.1v1.61h1.24A.17.17,0,0,0,29.51,28.46Z"/><path class="cls-1" d="M28.46,23.49a.24.24,0,0,0,.05-.35c-.15-.26-.43-.79-.59-1.09A.15.15,0,0,0,27.7,22l-1.59.86.69,1.78Z"/><path class="cls-1" d="M30.25,18.32H20.78a2.46,2.46,0,0,0-2.46,2.46v9.47a2.46,2.46,0,0,0,2.46,2.46h9.47a2.47,2.47,0,0,0,2.46-2.46V20.78A2.46,2.46,0,0,0,30.25,18.32ZM21,26.5a.41.41,0,0,1,.41.41.41.41,0,0,1-.41.42.42.42,0,0,1-.42-.42A.41.41,0,0,1,21,26.5ZM27.09,30a.72.72,0,0,1-.72.72H21.61a.73.73,0,0,1-.73-.72V28.07h-.3v-.56h.86V30a.17.17,0,0,0,.17.17h4.76a.18.18,0,0,0,.17-.17V27h-.4v2.23a.56.56,0,0,1-.55.56V26.46h1.5Zm-2.17-2.48v.56H23.06l-.46,1.19h1.55L24,28.72h.58l.21.64a.36.36,0,0,1-.35.48H22.32a.37.37,0,0,1-.3-.16.35.35,0,0,1,0-.34l.48-1.24h-.65v-.56ZM22,27.08v-.55h2.65v.55Zm5.05-1.55a.9.9,0,0,1-.47.15h0a.79.79,0,0,1-.73-.44,1,1,0,0,1,0-.1c-.2-.71-.55-1.83-.55-1.83S23.41,24.37,23,24.57c-1.24.53-1.21-.57-1.21-.57l-.07-1.59,0-.9.22-.08,0,.85L22,24h0a.6.6,0,0,0,.13.38.33.33,0,0,0,.26.1,1.42,1.42,0,0,0,.5-.13c.42-.18,2.12-1.13,2.32-1.25l-.08-.29-2.1,1a.51.51,0,0,1-.19.06h0a.35.35,0,0,1-.33-.32l-.27-2.23.22-.08.28,2.33a.11.11,0,0,0,.1.11h.05L25,22.59c-.06-.2-.45-1.44-.63-2.06l.21-.08c.12.38,1.31,4.23,1.41,4.58,0,0,0,0,0,.06h0a.43.43,0,0,0,.18.2.68.68,0,0,0,.35.09h0a.68.68,0,0,0,.35-.1h0a3.48,3.48,0,0,0,.36-.24l.17-.13c.4-.3,1.34-1,1.52-1.2h0a.5.5,0,0,0,.14-.37v0h0a.94.94,0,0,0-.09-.31l-.82-1.29h0a.43.43,0,0,0-.4-.22.91.91,0,0,0-.33.1h0l-1.59.77.09.23,1.56-.84a.4.4,0,0,1,.19-.05.39.39,0,0,1,.34.22l.14.25.45.82h0a.44.44,0,0,1-.11.62h0l-1.68,1.13h0a.2.2,0,0,1-.11,0,.2.2,0,0,1-.18-.11h0v0l-1.67-4.3.2-.07.74,1.9,1.57-.76a1,1,0,0,1,.43-.13.63.63,0,0,1,.59.34c.21.3.57.87.81,1.28a.74.74,0,0,1,.1.22,1,1,0,0,1,0,.24.74.74,0,0,1-.21.54,16.82,16.82,0,0,1-1.72,1.37A3,3,0,0,1,27.09,25.53Zm1.19,5.21a.72.72,0,0,1-.73-.72V26.46h2.52v2a.73.73,0,0,1-.73.73H28.1V30a.18.18,0,0,0,.18.17h1.61a.55.55,0,0,1,.55.55Z"/></svg>