<svg id="图层_1" data-name="图层 1" xmlns="http://www.w3.org/2000/svg" viewBox="0 0 107.72 28.35"><defs><style>.cls-1{fill:#231815;}</style></defs><title>货签版式</title><path class="cls-1" d="M9.32,10.51,5.37,20.74l-2.74-.93,6.69-9.3m2.15-4L1.72,20.1l4,1.36L11.47,6.54Z"/><polygon class="cls-1" points="22.93 21.46 5.71 21.46 11.47 6.54 13.64 12.96 16.22 9.8 18.29 16.44 20.39 13.65 22.93 21.46"/><path class="cls-1" d="M5.2,8.24c0-.08-.09-.16-.15-.24l-.3-.46L4.45,8c0,.08-.11.17-.15.25H3.91L4.11,8l.46-.64-.39-.56L4,6.52h.38a1.23,1.23,0,0,0,.14.24l.24.37L5,6.76a1.09,1.09,0,0,0,.14-.24h.38l-.19.25-.39.56L5.38,8l.21.27Z"/><path class="cls-1" d="M7.25,6.52a2.16,2.16,0,0,0,0,.28V8a2.3,2.3,0,0,0,0,.28H6.93A2.16,2.16,0,0,0,7,8V7.47H6.08V8a1.19,1.19,0,0,0,0,.28H5.78a2.35,2.35,0,0,0,0-.28V6.8a2.27,2.27,0,0,0,0-.28H6.1a1.19,1.19,0,0,0,0,.28v.41H7V6.8a2,2,0,0,0,0-.28Z"/><path class="cls-1" d="M7.81,7.7a.25.25,0,0,0,.06.19A.38.38,0,0,0,8.18,8c.22,0,.34-.1.34-.26a.23.23,0,0,0-.1-.2A2.09,2.09,0,0,0,8,7.46a.81.81,0,0,1-.32-.13A.44.44,0,0,1,7.55,7c0-.3.24-.5.61-.5a.65.65,0,0,1,.54.22A.72.72,0,0,1,8.81,7L8.5,7a.34.34,0,0,0-.07-.16.35.35,0,0,0-.27-.1c-.18,0-.31.1-.31.24A.2.2,0,0,0,8,7.16a1.1,1.1,0,0,0,.3.08,1.12,1.12,0,0,1,.35.13.43.43,0,0,1,.18.37.51.51,0,0,1-.14.37.69.69,0,0,1-.51.16.83.83,0,0,1-.45-.11.48.48,0,0,1-.19-.25.6.6,0,0,1,0-.18Z"/><path class="cls-1" d="M36.06,11.06H39.4A10.29,10.29,0,0,0,41,11v1.26a11.63,11.63,0,0,0-1.64-.07h-.91l1,.36a7.16,7.16,0,0,1-.61.7h1.33a12,12,0,0,0,1.65-.07v1.3a13.67,13.67,0,0,0-1.65-.09H39.4a6.57,6.57,0,0,0,3,1.8,4.79,4.79,0,0,0-.65,1.26,11,11,0,0,1-1.63-.9V17a6.27,6.27,0,0,0-.8,0h-.21v.63h1.64a8.18,8.18,0,0,0,1-.05v1.23a7.37,7.37,0,0,0-1-.06H39.13v1.33h.47s0,0,.06-.09a7,7,0,0,0,.55-1.22l1.13.33-.39.76a.92.92,0,0,0-.14.22h.33a8.39,8.39,0,0,0,1,0v1.32a6.09,6.09,0,0,0-1-.06h-5a6.51,6.51,0,0,0-1,.06V20a9.29,9.29,0,0,0,1,0h.06a6.83,6.83,0,0,0-.51-1l1.07-.34a8.25,8.25,0,0,1,.63,1.31h.46V18.73H36.41a8.07,8.07,0,0,0-1,.06V17.56a9.29,9.29,0,0,0,1,.05h1.45V17h-.22a5.94,5.94,0,0,0-.78,0v-.43a11.7,11.7,0,0,1-1.55.84,2.7,2.7,0,0,0-.63-1l-.31.45a6.68,6.68,0,0,0-.68-.63V17a6.29,6.29,0,0,0-.8,0h-.24v.62h1a7.87,7.87,0,0,0,1,0v1.2a7.7,7.7,0,0,0-1-.06H33.6l1,.32c-.18.34-.19.37-.4.79l.49-.09v1.2c-1,.13-1.44.18-2.92.3l-1.64.12-.7.06a6,6,0,0,0-.69.1l-.13-1.39h1.21A6.24,6.24,0,0,0,29.27,19l1.07-.34A7.59,7.59,0,0,1,31,20l.43,0V18.67H30a7.84,7.84,0,0,0-1,.06v-1.2a9.17,9.17,0,0,0,1,0H31.4V17h-.15a6.2,6.2,0,0,0-.79,0v-.42a10.39,10.39,0,0,1-1.57.86,3.72,3.72,0,0,0-.63-1.26,6.59,6.59,0,0,0,2.95-1.8h-.78a10.23,10.23,0,0,0-1.65.09v-1.3a15.36,15.36,0,0,0,1.6.07h1.28a5.08,5.08,0,0,0-.54-.75l1-.31h-.65a12,12,0,0,0-1.59.07V11a10.2,10.2,0,0,0,1.59.08h3.12v-.59H33.9c-.38,0-.67,0-1,0V10A21.4,21.4,0,0,1,29.05,11a4.15,4.15,0,0,0-.72-1.29A16.57,16.57,0,0,0,31.69,9a7.15,7.15,0,0,0,3-1.61l1.62.36-.18.18.45.2a16.57,16.57,0,0,0,5.87,1.62,6.3,6.3,0,0,0-.73,1.31,22.34,22.34,0,0,1-4-1.1v.55a6.91,6.91,0,0,0-1.07,0h-.66Zm-3.14,5a3.24,3.24,0,0,0,.43,0c-.4-.31-.78-.57-1.26-.88a7.64,7.64,0,0,1-.9.9Zm-.36-3.85a8.62,8.62,0,0,1,.66,1.06h1.33V12.17Zm.09,7.74.39,0a5.49,5.49,0,0,0,.53-1.21h-.92Zm.27-5.54a15.93,15.93,0,0,1,2.23,1.42l-.29.39a6.17,6.17,0,0,0,2.76-1.81Zm3.89-4.82a13,13,0,0,1-1.57-.83,8.31,8.31,0,0,1-1.37.83Zm-.75,3.68h1.28a7.43,7.43,0,0,0,.7-1.06h-2ZM39.45,16a7.23,7.23,0,0,1-1-.93,7.43,7.43,0,0,1-.89.93Z"/><path class="cls-1" d="M52.17,8.33a11.34,11.34,0,0,0,2.1,2,14.64,14.64,0,0,0,4.14,2.16c-.32.36-.32.36-.86,1.63a13.88,13.88,0,0,1-2.41-1.2v.93a12.07,12.07,0,0,0-1.35-.06H48.67a12.57,12.57,0,0,0-1.29.06v-1c-.62.37-1.76,1-2.4,1.24a4.85,4.85,0,0,0-.88-1.57,13.63,13.63,0,0,0,2.45-1.19,10.24,10.24,0,0,0,4-3.7L52.41,8Zm-6,13.23A12,12,0,0,0,46.25,20V16.48c0-.61,0-1.05-.07-1.48a10.34,10.34,0,0,0,1.29.06H55a10.64,10.64,0,0,0,1.3-.06,10.29,10.29,0,0,0-.07,1.48V20a8.78,8.78,0,0,0,.09,1.57H54.49V20.8H48v.76ZM48,19.33h6.54V16.51H48Zm5.82-7.12H54a14.32,14.32,0,0,1-2.83-2.56,13.22,13.22,0,0,1-2.89,2.56h5.45Z"/><path class="cls-1" d="M62.24,8.08a10.89,10.89,0,0,0-.07,1.65v4.61a26.69,26.69,0,0,1-.42,5.14,7,7,0,0,1-.65,1.87,7.44,7.44,0,0,0-1.22-1.27A6.08,6.08,0,0,0,60.56,18a32,32,0,0,0,.26-3.88V9.73a10.36,10.36,0,0,0-.08-1.65Zm1.94.49a9.49,9.49,0,0,0-.05,1.55v7.77a12.1,12.1,0,0,0,.06,1.5H62.8a11.48,11.48,0,0,0,.07-1.53V10.13a12,12,0,0,0-.06-1.56Zm2,12.2v.07a4.26,4.26,0,0,0,.06.5H64.73a9.83,9.83,0,0,0,.09-1.87V10a15.21,15.21,0,0,0-.07-1.86h1.52A12.77,12.77,0,0,0,66.2,10v9.52c0,.53,0,.71,0,.94a4.69,4.69,0,0,0,2.64-1.75c.48-.75.6-1.52.6-3.93,0-.66,0-.79,0-1.8h1.44V14.1c0,.05,0,.45,0,1,0,.12,0,.51,0,1.11,0,2-.35,3-1.24,3.91A6.89,6.89,0,0,1,67,21.83l-.12-.24a4.11,4.11,0,0,0-.65-1Zm.38-12.53a15.76,15.76,0,0,0,1.89.09h3.88A7.69,7.69,0,0,0,74,8.24V9.85a10.89,10.89,0,0,0-1.63-.08H71.23A8.28,8.28,0,0,1,70.8,11H72c.75,0,1,0,1.47,0,0,.52,0,.84,0,1.36V17c0,.62,0,1.05,0,1.55H71.94L72,17V12.23H68.36V17c0,.82,0,1.14,0,1.53H66.84c0-.57,0-.9,0-1.53V12.32c0-.63,0-1,0-1.4a12.22,12.22,0,0,0,1.28,0h1.11a6.32,6.32,0,0,0,.41-1.18H68.51a13.82,13.82,0,0,0-1.92.08Zm4.6,10.19c.7.44.76.48,1.75,1.14a8.09,8.09,0,0,1,1.38,1.06l-1,1.23a14.52,14.52,0,0,0-3-2.33Z"/><path class="cls-1" d="M83.64,11.46l0,.12a9.85,9.85,0,0,1-1.74,2.52A4.67,4.67,0,0,0,80.61,13a6.7,6.7,0,0,0,.72-.72,7.14,7.14,0,0,0-.84,0h-.35V15c.49-.17.74-.27,1.4-.56l0,1.5c-.77.33-1,.42-1.42.6V20a15.68,15.68,0,0,0,.09,1.72H78.46a12.65,12.65,0,0,0,.1-1.72V17.13l-1.35.46a6.41,6.41,0,0,0-.79.32l-.35-1.79a9,9,0,0,0,2.49-.58V12.21h-.75a15.76,15.76,0,0,1-.57,2.43,4.72,4.72,0,0,0-1.36-.81,7.76,7.76,0,0,0,.55-2.08,12.16,12.16,0,0,0,.21-2.14c0-.2,0-.33,0-.6l1.5.16C78,10.27,78,10.38,78,10.7h.57V9a6.89,6.89,0,0,0-.1-1.23h1.77A7.45,7.45,0,0,0,80.14,9V10.7h.35a4.05,4.05,0,0,0,1-.08v1.44a8.64,8.64,0,0,0,1.06-2,8.56,8.56,0,0,0,.66-2.31l1.74.3c-.12.32-.12.32-.48,1.37-.06.16-.09.25-.19.55h4.15A7.29,7.29,0,0,0,89.65,10a13.39,13.39,0,0,0-.09,1.89c-.1,5.09-.3,7.36-.7,8.39s-1,1.24-2.31,1.24a12.32,12.32,0,0,1-1.44-.09v0a3.7,3.7,0,0,0-.39-1.66,9.17,9.17,0,0,0,1.84.24c.62,0,.84-.31,1-1.38A55.84,55.84,0,0,0,88,11.46h-.18a18.56,18.56,0,0,1-1.6,5.43,12.65,12.65,0,0,1-3.9,4.6,3.46,3.46,0,0,0-1.26-1.23A10.38,10.38,0,0,0,85,16a17.93,17.93,0,0,0,1.24-3.49c0-.12.09-.46.2-1h-.62a11.34,11.34,0,0,1-4,6.57,3.61,3.61,0,0,0-1.11-1.31,6.43,6.43,0,0,0,1.77-1.51,9.48,9.48,0,0,0,1.92-3.75Z"/><path class="cls-1" d="M92.78,11.57a11.92,11.92,0,0,1,2.7,1.89l-1,1.36a10.14,10.14,0,0,0-2.7-2Zm2.67,5.11a18.85,18.85,0,0,1-1.51,3.8,6.84,6.84,0,0,1-.33.62l-.2.37L92,20.23a4,4,0,0,0,.68-.94,14.07,14.07,0,0,0,1.42-3.59Zm4.81-6.07a17.91,17.91,0,0,1-1.36,1.93c1.5-.06,2-.09,3.56-.21-.27-.3-.42-.45-.85-.87l1.23-.73a19.76,19.76,0,0,1,2.77,3.07l-1.38.93a11.21,11.21,0,0,0-.75-1.14c-3.2.27-3.5.3-4.79.38a18.09,18.09,0,0,0-2.21.22l-.3-1.3a1.82,1.82,0,0,0,1.14-.63,11.7,11.7,0,0,0,1.2-1.65H97.46c-.63,0-1.17,0-1.61.07V10l-1,1.18a10.37,10.37,0,0,0-2.45-2.08l1.07-1.17a14.25,14.25,0,0,1,2.39,2v-.8a9.25,9.25,0,0,0,1.64.09h2.17a4.37,4.37,0,0,0-.55-.88l1.44-.68a6.49,6.49,0,0,1,.92,1.56h2.42a11.38,11.38,0,0,0,1.64-.09v1.6c-.41,0-.91-.07-1.63-.07Zm-2,4c0,.29,0,.29-.09,1.57a6.41,6.41,0,0,1-.95,3.72,6.06,6.06,0,0,1-1.64,1.68,4.11,4.11,0,0,0-1.19-1.23c1.74-1.11,2.29-2.25,2.29-4.77a6,6,0,0,0-.06-1Zm.94,6.43a10.32,10.32,0,0,0,.09-1.45V16a7.59,7.59,0,0,0-.07-1.26h1.66a10.68,10.68,0,0,0-.06,1.24v3.69a14,14,0,0,0,.07,1.44Zm4.32-1.48c0,.29.06.35.4.35s.48-.06.53-.21a12.11,12.11,0,0,0,.13-2.11,5.2,5.2,0,0,0,1.38.56c-.12,2-.17,2.36-.48,2.74s-.7.45-1.71.45-1.32-.11-1.57-.36-.23-.38-.23-.9V16a9.88,9.88,0,0,0-.06-1.44h1.67a9.18,9.18,0,0,0-.06,1.38Z"/></svg>